# xmcd
#
# Track frame offsets: 
#        183
#        14495
#        26145
#        35833
#        47033
#        57220
#        67895
#        79745
#        90220
#        100795
#        108895
#        118658
#        129433
#        144733
#        156758
#        166920
#        178845
#        188995
#        199220
#        212245
#        223720
#        239233
#
# Disc length: 3387 seconds
#
# Revision: 2
# Processed by: cddbd v1.5.1PL0 Copyright (c) Steve Scherf et al.
# Submitted via: ExactAudioCopy v0.95b2
#
DISCID=400d3916
DTITLE=The Supersonics - Treasure Isle Dub vol 1 and 2
DYEAR=1993
DGENRE=
TTITLE0=De Pauper A Dub
TTITLE1=Construction Dub Style
TTITLE2=Dub So True
TTITLE3=Arabian Dub
TTITLE4=Dub I Love
TTITLE5=Willow Tree Dub
TTITLE6=Touch A Dub
TTITLE7=This Yah Dub
TTITLE8=Everybody Dubbing
TTITLE9=Moody Dub
TTITLE10=Dub on Little Girl
TTITLE11=You'I'll Dub
TTITLE12=Ballistic Queen
TTITLE13=Reigning Dub
TTITLE14=Toughest
TTITLE15=Midnight Dub
TTITLE16=Chucky Love
TTITLE17=Gemini Rock
TTITLE18=Guidance
TTITLE19=Top Ranking
TTITLE20=Love Chant
TTITLE21=Twilight Zone
EXTD=
EXTT0=
EXTT1=
EXTT2=
EXTT3=
EXTT4=
EXTT5=
EXTT6=
EXTT7=
EXTT8=
EXTT9=
EXTT10=
EXTT11=
EXTT12=
EXTT13=
EXTT14=
EXTT15=
EXTT16=
EXTT17=
EXTT18=
EXTT19=
EXTT20=
EXTT21=
PLAYORDER=
